<svg width="73" height="73" viewBox="0 0 73 73" fill="none" xmlns="http://www.w3.org/2000/svg">
<path d="M39.7837 17.3276L42.5557 31.5474L42.6249 31.9024L42.9837 31.9478L57.5245 33.788L44.7013 40.7203L44.378 40.8951L44.4483 41.2559L47.2174 55.4607L36.5073 45.5355L36.2446 45.2921L35.9296 45.4624L23.0846 52.4065L29.3051 39.3394L29.4631 39.0076L29.1935 38.7577L18.5016 28.8494L33.0424 30.6896L33.4012 30.735L33.5566 30.4085L39.7837 17.3276Z" fill="#BCBAB3" stroke="#BCBAB3"/>
<path d="M39.4733 13.6564L42.6352 29.8764L59.2443 31.9784L44.5894 39.901L47.7513 56.121L35.5322 44.7974L20.8773 52.72L27.9803 37.799L15.7612 26.4753L32.3703 28.5773L39.4733 13.6564Z" fill="#EAEAEA"/>
<line x1="35.2271" y1="45.5608" x2="46.5651" y2="39.3904" stroke="#BCBAB3"/>
<line x1="27.9323" y1="37.8678" x2="32.3331" y2="28.6106" stroke="#BCBAB3" stroke-width="0.15"/>
</svg>
