<svg width="87" height="86" viewBox="0 0 87 86" fill="none" xmlns="http://www.w3.org/2000/svg">
<path d="M36.9364 12.9114L49.355 32.6025L49.5479 32.9084L49.8988 32.821L72.7638 27.1224L57.5723 44.9745L57.3341 45.2544L57.5302 45.5652L69.9406 65.2434L48.1249 56.5997L47.792 56.4678L47.5599 56.7405L32.3524 74.6115L34.0761 51.4107L34.1033 51.0442L33.7616 50.9088L11.9689 42.2742L34.8339 36.5756L35.1848 36.4881L35.2116 36.1275L36.9364 12.9114Z" fill="#BCBAB3" stroke="#BCBAB3"/>
<path d="M34.6425 8.63391L48.3009 30.2909L73.4702 24.018L56.7423 43.6757L70.4006 65.3326L46.4038 55.8248L29.6759 75.4824L31.573 49.9486L7.57619 40.4407L32.7454 34.1678L34.6425 8.63391Z" fill="#EAEAEA"/>
<line x1="46.3683" y1="56.677" x2="59.2872" y2="41.4093" stroke="#BCBAB3"/>
</svg>
