<svg width="44" height="201" viewBox="0 0 44 201" fill="none" xmlns="http://www.w3.org/2000/svg">
<path d="M8.67521 79L3.9188 200C3.9188 200 25.5391 200 42.403 200C41.1057 162.5 36.7817 79 36.7817 79M8.67521 79L6.08077 78M8.67521 79L9.10762 77L16.0261 76H28.9983L35.052 77L36.7817 79M6.08077 78L4.35114 59M6.08077 78L7.8104 76L16.0261 74.5H28.9983L36.7817 76L39.3761 78M4.35114 59C4.35114 59 2.43217 57.6716 1.75671 56.5C0.891898 55 0.459536 53 2.1891 50M4.35114 59V54L5.21596 50.5C6.36904 49.1667 9.88595 45.8 14.7289 45M2.1891 50C5.64836 47.5 14.7289 45 14.7289 45M2.1891 50L22.5122 1L41.5382 50M14.7289 45C14.7289 45 18.1882 44.5146 22.5122 44.5C27.7011 44.4825 30.728 45 30.728 45M30.728 45C30.728 45 39.1516 46.045 41.5382 50M30.728 45C34.8791 45.8 38.223 48.8333 39.3761 50L40.6733 54V59M41.5382 50C42.8525 52.178 43.2678 53.5 42.8354 56C42.5966 57.3807 40.6733 59 40.6733 59M40.6733 59L39.3761 78M39.3761 78L36.7817 79" stroke="#7A7A7A" stroke-width="0.5"/>
<path d="M35.5 53L32.5 51V66L35.5 66.5V53Z" stroke="#7A7A7A" stroke-width="0.5"/>
<path d="M16 66L13 66.5L12 53L16 52V66Z" stroke="#7A7A7A" stroke-width="0.5"/>
<path d="M27 179V200H37L36.5 179.5L27 179Z" stroke="#7A7A7A" stroke-width="0.5"/>
</svg>
